<svg xmlns="http://www.w3.org/2000/svg" width="100" height="100" viewBox="0 0 100 100" fill="none" stroke="currentColor" stroke-width="2">
  <path d="M65 65H75C87.15 65 97 55.15 97 43C97 30.85 87.15 21 75 21C74.5 21 74 21.05 73.5 21.1C69.15 9.95 58.6 2 46 2C29.4 2 16 15.4 16 32C16 32.35 16.05 32.7 16.05 33.05C7.3 36.85 1 45.85 1 56C1 69.8 12.2 81 26 81H55" stroke="#000" stroke-width="3" stroke-miterlimit="10" stroke-linecap="round"/>
  <path d="M40 50L50 40L60 50" stroke="#000" stroke-width="3" stroke-miterlimit="10" stroke-linecap="round"/>
  <path d="M50 40V80" stroke="#000" stroke-width="3" stroke-miterlimit="10" stroke-linecap="round"/>
</svg>

